<?xml version="1.0" encoding="UTF-8"?>
<svg width="106px" height="119px" viewBox="0 0 106 119" version="1.1" xmlns="http://www.w3.org/2000/svg" xmlns:xlink="http://www.w3.org/1999/xlink">
    <!-- Generator: Sketch 58 (84663) - https://sketch.com -->
    <title>atoms/logo/bookmark</title>
    <desc>Created with Sketch.</desc>
    <g id="atoms/logo/bookmark" stroke="none" stroke-width="1" fill="none" fill-rule="evenodd">
        <g id="3wa-header-logo2">
            <polygon id="Shape" fill="#E8E7E7" fill-rule="nonzero" points="0.5 0.836 105.234 0.836 98.164 101.927 53.188 118.848 7.781 101.716"></polygon>
            <polygon id="Shape" fill="#EF4036" fill-rule="nonzero" points="1.477 2.395 103.629 2.395 96.734 100.996 52.867 117.496 8.578 100.785"></polygon>
            <polygon id="Shape" fill="#F1592A" fill-rule="nonzero" points="96.527 8.454 53.285 8.454 53.285 109.77 90.887 96.605"></polygon>
            <path d="M20.906,71.75 L84.098,71.75 L20.906,71.75 Z" id="Shape" stroke="#FFFFFF" stroke-width="2.1934" stroke-linejoin="round"></path>
            <polygon id="Shape" fill="#FFFFFF" fill-rule="nonzero" points="46.867 8.297 54.398 8.297 58.535 40.5 62.82 8.297 68.875 8.297 73.305 40.5 77.441 8.148 84.977 8.148 77.441 66.496 70.5 66.496 65.922 35.625 61.637 66.348 54.844 66.348"></polygon>
            <path d="M29.141,24.988 L21.016,24.988 L21.016,18.636 C21.016,18.636 21.016,7.422 31.652,7.558 C43.172,7.707 43.023,17.453 43.023,17.453 L43.023,26.172 C43.023,26.172 43.469,31.043 39.332,35.625 C44.059,39.465 43.762,44.781 43.762,44.781 L43.762,56.304 C43.762,56.304 43.316,66.597 33.422,67.531 C21.508,68.656 21.312,56.304 21.312,56.304 L21.312,49.508 L30.027,49.508 L30.027,55.121 C30.027,55.121 29.582,59.554 32.832,59.554 C36.082,59.554 35.047,54.972 35.047,54.972 L35.047,45.371 C35.047,45.371 35.934,39.906 28.105,39.906 L28.105,32.965 C28.105,32.965 34.309,33.406 34.605,28.976 C34.812,25.883 34.605,18.34 34.605,18.34 C34.605,18.34 35.047,14.945 32.094,14.945 C29.141,14.945 29.582,19.226 29.582,19.226 L29.141,24.988 Z" id="Shape" fill="#FFFFFF" fill-rule="nonzero"></path>
            <path d="M24.859,82.598 L25.82,88.512 L23.902,88.512 L24.859,82.598 Z M23.234,76.977 L20.414,94.899 L23.078,94.977 L23.668,91.45 L26.113,91.45 L26.566,94.977 L29.363,94.977 L26.406,76.977 L23.234,76.977 Z" id="Shape" fill="#FFFFFF" fill-rule="nonzero"></path>
            <path d="M35.27,83.113 L37.633,83.113 L37.633,79.716 C37.633,79.716 37.043,76.977 34.016,76.977 C30.984,76.977 30.543,79.789 30.543,79.789 L30.543,92.566 C30.543,92.566 30.984,94.937 33.793,94.937 C37.41,94.937 37.633,92.273 37.633,92.273 L37.633,89.168 L35.195,89.168 L35.195,91.755 C35.195,91.755 35.121,92.938 34.16,92.938 C33.203,92.938 33.055,91.68 33.055,91.68 L33.055,80.384 C33.055,80.384 33.203,79.384 34.051,79.384 C34.973,79.384 35.121,80.453 35.121,80.453 L35.27,83.113 Z" id="Shape" fill="#FFFFFF" fill-rule="nonzero"></path>
            <path d="M42.848,82.598 L43.809,88.512 L41.887,88.512 L42.848,82.598 Z M41.223,76.977 L38.402,94.899 L41.066,94.977 L41.652,91.45 L44.102,91.45 L44.551,94.977 L47.352,94.977 L44.395,76.977 L41.223,76.977 Z" id="Shape" fill="#FFFFFF" fill-rule="nonzero"></path>
            <path d="M51.223,79.466 C53.14,79.466 53.14,80.895 53.14,80.895 L53.14,90.137 C53.14,92.356 51.223,92.117 51.223,92.117 L51.223,79.466 Z M48.715,76.977 L48.715,94.938 L51.301,94.938 C51.301,94.938 55.727,95.29 55.727,91.45 L55.727,80.466 C55.692,79.184 54.653,76.977 51.145,76.977 L48.715,76.977 L48.715,76.977 Z" id="Shape" fill="#FFFFFF" fill-rule="nonzero"></path>
            <polygon id="Shape" fill="#FFFFFF" fill-rule="nonzero" points="57.773 76.977 63.832 76.977 63.832 79.531 60.754 79.531 60.754 84.438 63.207 84.438 63.207 87.259 60.699 87.259 60.699 92.273 63.887 92.273 63.887 94.938 57.934 94.938"></polygon>
            <polygon id="Shape" fill="#FFFFFF" fill-rule="nonzero" points="65.504 94.938 65.504 76.927 68.535 76.927 70.52 85.691 72.348 77.031 75.375 77.031 75.375 94.961 73.078 94.961 73.078 82.82 71.195 94.938 69.734 94.961 67.855 82.927 67.855 94.91"></polygon>
            <polygon id="Shape" fill="#FFFFFF" fill-rule="nonzero" points="76.992 77.005 79.238 77.005 80.805 82.402 82.215 77.055 84.617 77.055 82.164 86.684 82.164 94.938 79.344 94.938 79.344 86.789"></polygon>
        </g>
    </g>
</svg>