<?xml version="1.0" encoding="UTF-8"?>
<svg width="64px" height="64px" viewBox="0 0 64 64" version="1.1" xmlns="http://www.w3.org/2000/svg" xmlns:xlink="http://www.w3.org/1999/xlink">
    <!-- Generator: Sketch 58 (84663) - https://sketch.com -->
    <title>atoms/icons/64x64/reconversionHelp/default</title>
    <desc>Created with Sketch.</desc>
    <g id="atoms/icons/64x64/reconversionHelp/default" stroke="none" stroke-width="1" fill="none" fill-rule="evenodd">
        <g id="icon" transform="translate(8.000000, 24.000000)" fill-rule="nonzero" stroke="#464646" stroke-linecap="round" stroke-linejoin="round" stroke-width="1.5">
            <g id="Shape-+-Shape-Copy-Mask">
                <path d="M28,42 L30.442504,29.470871 C31.2190013,25.6925913 33.3746234,22.4253532 36.5126144,20.271201 L40.4543718,17.5651654 C41.1569491,17.0826555 43.2150963,18.3431568 43.7770455,18.9904149 C44.4112244,19.7214276 44.4196756,20.7922911 43.8161464,21.5320475 C43.7948494,21.5564376 38.385511,27.4329563 38.3651154,27.4550454 C37.9390617,27.9182272 37.4034566,28.1591651 37.8570049,28.5941602 C38.3106659,29.0291554 38.4773519,28.3570948 38.9034056,27.8939129 C38.9187304,27.8773461 43.5231754,22.878871 44.271502,22.0692807 C44.3324634,22.0033584 44.390157,21.9353652 44.446273,21.8666818 C45.7558727,20.3816468 46.47693,18.4728913 46.47693,16.4694516 L46.47693,2.31663531 C46.47693,1.58412695 46.9660861,0.961719186 47.6665224,0.803068482 C48.1187185,0.700676077 48.5847746,0.811697055 48.945923,1.10736951 C49.3069588,1.403157 49.5140698,1.84390454 49.5140698,2.31663531 L49.5140698,20.1550029 C49.5140698,22.012102 48.9575294,23.794075 47.9046212,25.3084472 L39.3913221,37.552623 C39.0310752,38.0706826 27.8885567,42.5422196 28,42 Z" id="Shape"></path>
                <path d="M22,41 L10,40 L2.07376025,25.3084472 C1.02085206,23.794075 0.46431166,22.012102 0.46431166,20.1550029 L0.46431166,2.31663531 C0.46431166,1.84390454 0.671422666,1.403157 1.03245839,1.10736951 C1.3936068,0.811697055 1.85966291,0.700676077 2.31185903,0.803068482 C3.01229538,0.961719186 3.50145146,1.58412695 3.50145146,2.31663531 L3.50145146,16.4694516 C3.50145146,18.4728913 4.22250877,20.3816468 5.5321084,21.8666818 C5.58822444,21.9353652 5.64591804,22.0033584 5.70687944,22.0692807 C6.45520599,22.878871 11.059651,27.8773461 11.0749759,27.8939129 C11.5010296,28.3570948 11.6677155,29.0291554 12.1213765,28.5941602 C12.5749248,28.1591651 12.0393197,27.9182272 11.613266,27.4550454 C11.5928704,27.4329563 6.18353206,21.5564376 6.16223501,21.5320475 C5.55870587,20.7922911 5.56715708,19.7214276 6.20133594,18.9904149 C6.76328512,18.3431568 8.82143234,17.0826555 9.52400966,17.5651654 L13.4657671,20.271201 C16.603758,22.4253532 18.7593802,25.6925913 19.5358774,29.470871 L22,41 Z" id="Shape-Copy"></path>
            </g>
        </g>
        <path d="M24.4677801,14.6295985 C28.4931629,10.9883809 34.5173181,10.9327048 38.5983771,14.2565686 L35.363595,14.379056 C34.9460242,14.3957589 34.6231027,14.7409508 34.6398056,15.1585216 C34.6565084,15.5649572 34.9905651,15.882311 35.3914331,15.882311 C35.3988565,15.882311 37.0635723,15.8210673 40.3855802,15.6985799 C40.7920158,15.681877 41.1093697,15.353388 41.1093697,14.9469524 L41.1093697,14.8912763 C41.1093697,14.8838528 41.0481259,13.2358399 40.9256385,9.94723759 C40.9089357,9.52966676 40.5581762,9.20674532 40.1461729,9.22344815 C39.7286021,9.24015098 39.4056807,9.58534287 39.4223835,10.0029137 L39.5393033,13.0818026 C37.5182605,11.4282221 35.0295383,10.470593 32.3682202,10.3369704 C29.0721944,10.169942 25.9042237,11.3001671 23.4600424,13.5160763 C20.0972053,16.5615596 18.6718969,21.193812 19.7408782,25.60336 C19.8243924,25.9485519 20.130611,26.176824 20.4702353,26.176824 C20.531479,26.176824 20.5871551,26.1712564 20.6483988,26.1545535 C21.0492668,26.0543365 21.2998093,25.6479009 21.1995923,25.2470329 C20.2642337,21.3719756 21.5113786,17.3020519 24.4677801,14.6295985 Z" id="Shape" fill="#5ACC79" fill-rule="nonzero"></path>
        <path d="M43.9711218,20.1081279 C43.8709048,19.7072599 43.4644692,19.4567174 43.0636012,19.5569344 C42.6627332,19.6571514 42.4121907,20.063587 42.5124077,20.464455 C43.4533339,24.3395123 42.2006214,28.409436 39.2442199,31.0818894 C37.167501,32.9581743 34.561859,33.8823977 31.9673522,33.8823977 C29.4897653,33.8823977 27.0177459,33.0416885 25.0245412,31.3825404 L28.2982965,31.087457 C28.7102997,31.0484837 29.0165183,30.686589 28.9775451,30.2690181 C28.9385718,29.8514473 28.5766771,29.5507963 28.1591062,29.5897696 L23.2094999,30.0351785 C22.7974967,30.0741517 22.4912781,30.4360465 22.5302514,30.8536173 L22.9756603,35.8032236 C23.0090659,36.1929564 23.337555,36.4880397 23.7217202,36.4880397 C23.7439906,36.4880397 23.7662611,36.4880397 23.7885315,36.4824721 C24.2005347,36.4434989 24.5067533,36.0816041 24.4677801,35.6640333 L24.2005347,32.6519557 C26.2215776,34.2888334 28.6991645,35.2408949 31.3437798,35.3745175 C31.555349,35.3856527 31.7669182,35.3912204 31.9729198,35.3912204 C35.0406736,35.3912204 37.9581018,34.2665629 40.2519576,32.1954116 C43.6147947,29.1499283 45.0401031,24.5232435 43.9711218,20.1081279 Z" id="Shape" fill="#5ACC79" fill-rule="nonzero"></path>
    </g>
</svg>