<?xml version="1.0" encoding="UTF-8"?>
<svg width="64px" height="64px" viewBox="0 0 64 64" version="1.1" xmlns="http://www.w3.org/2000/svg" xmlns:xlink="http://www.w3.org/1999/xlink">
    <!-- Generator: Sketch 58 (84663) - https://sketch.com -->
    <title>atoms/icons/64x64/formation/default</title>
    <desc>Created with Sketch.</desc>
    <g id="atoms/icons/64x64/formation/default" stroke="none" stroke-width="1" fill="none" fill-rule="evenodd">
        <path d="M20.6267361,16.858088 L34.3563269,16.8611844 C36.3064262,17.0437603 37.4154767,18.0962793 37.4154767,19.8657132 L37.4154767,19.8658373 C37.4154767,19.865982 37.4154767,19.865982 37.4154767,19.8662095 C37.4154767,19.8667885 37.4154767,19.8667885 37.4154767,19.8676985 C37.4154767,19.8700146 37.4154767,19.8700146 37.4154767,19.8736543 C37.4154767,19.882919 37.4154767,19.882919 37.4154767,19.8974778 C37.4154767,19.9345364 37.4154767,19.9345364 37.4154767,19.9927715 C37.4154767,20.1410063 37.4154767,20.1410063 37.4154767,20.3739466 C37.4154767,20.9668855 37.4154767,20.9668855 37.4154767,21.8986468 C37.4154767,24.2704026 37.4154767,24.2704026 37.4154767,27.9974475 C37.4154767,37.3226453 37.4154767,37.4817105 37.4154767,51.6426505 L41.9040799,51.6426505 C43.6990053,51.6426505 45.1540799,50.1875759 45.1540799,48.3926505 L45.1540799,15.6073495 C45.1540799,13.8124241 43.6990053,12.3573495 41.9040799,12.3573495 L23.8767361,12.3573495 C22.0818107,12.3573495 20.6267361,13.8124241 20.6267361,15.6073495 L20.6267361,16.858088 Z" id="Rectangle-7-Copy" stroke="#464646" stroke-width="1.5" fill-rule="nonzero"></path>
        <path d="M28.1153067,12.2234033 L42.255608,12.2267554 C44.148387,12.4110454 45.2205837,13.4692465 45.2205837,15.2310199 C45.2205837,15.2310406 45.2205837,15.2310406 45.2205837,15.231144 C45.2205837,15.2312887 45.2205837,15.2312887 45.2205837,15.2315162 C45.2205837,15.2320953 45.2205837,15.2320953 45.2205837,15.2330052 C45.2205837,15.2353213 45.2205837,15.2353213 45.2205837,15.238961 C45.2205837,15.2482257 45.2205837,15.2482257 45.2205837,15.2627845 C45.2205837,15.2998432 45.2205837,15.2998432 45.2205837,15.3580782 C45.2205837,15.506313 45.2205837,15.506313 45.2205837,15.7392533 C45.2205837,16.3321922 45.2205837,16.3321922 45.2205837,17.2639535 C45.2205837,19.6357093 45.2205837,19.6357093 45.2205837,23.3627542 C45.2205837,32.687952 45.2205837,32.8470172 45.2205837,47.0079572 L48.3926505,47.0079572 C50.1875759,47.0079572 51.6426505,45.5528826 51.6426505,43.7579572 L51.6426505,10.9726562 C51.6426505,9.17773081 50.1875759,7.72265625 48.3926505,7.72265625 L31.3653067,7.72265625 C29.5703813,7.72265625 28.1153067,9.17773081 28.1153067,10.9726562 L28.1153067,12.2234033 Z" id="Rectangle-7-Copy-2" stroke="#464646" stroke-width="1.5" fill-rule="nonzero"></path>
        <g id="Group" transform="translate(11.000000, 16.000000)" fill-rule="nonzero" stroke="#3E9EFF" stroke-width="1.5">
            <rect id="Rectangle-7" fill="#FBFBFD" x="0.75" y="0.75" width="26.5" height="39.5" rx="4"></rect>
            <path d="M3.96666667,18.1704545 L23.725463,18.1704545" id="Line-3" stroke-linecap="round"></path>
            <path d="M3.96666667,20.9659091 L23.725463,20.9659091" id="Line-3-Copy" stroke-linecap="round"></path>
            <path d="M15.4,24.4602273 L23.4921296,24.4602273" id="Line-3-Copy-2" stroke-linecap="round"></path>
            <path d="M15.4,27.2556818 L23.4921296,27.2556818" id="Line-3-Copy-3" stroke-linecap="round"></path>
            <path d="M15.4,30.0511364 L23.4921296,30.0511364" id="Line-3-Copy-4" stroke-linecap="round"></path>
            <path d="M4.2,35.6420455 L23.4921296,35.6420455" id="Line-3-Copy-5" stroke-linecap="round"></path>
            <ellipse id="Oval-3-Copy" cx="5.13333333" cy="12.5795455" rx="1.4" ry="1.39772727"></ellipse>
            <path d="M5.84953704,30.4588068 C5.3077424,30.2902457 6.12886509,29.5939435 8.31290509,28.3699002 L11.571875,29.3838187" id="Path-7" stroke-linecap="round"></path>
            <path d="M6.06666667,11.6477273 L8.86666667,7.92045455" id="Line" stroke-linecap="round"></path>
            <path d="M15.7297454,9.22799282 L11.4997685,7.46586963" id="Line-Copy" stroke-linecap="round"></path>
            <path d="M18.3340856,8.75116398 L21.5837384,5.38707386" id="Line-Copy-2" stroke-linecap="round"></path>
            <path d="M8.4,28.4204545 L8.4,25.1590909" id="Line-Copy-3" stroke-linecap="round"></path>
            <ellipse id="Oval-3-Copy-6" cx="8.4" cy="27.9545455" rx="3.73333333" ry="3.72727273"></ellipse>
            <ellipse id="Oval-3-Copy-3" cx="9.8" cy="6.98863636" rx="1.4" ry="1.39772727"></ellipse>
            <ellipse id="Oval-3-Copy-4" cx="17.2666667" cy="9.78409091" rx="1.4" ry="1.39772727"></ellipse>
            <ellipse id="Oval-3-Copy-5" cx="22.8666667" cy="4.19318182" rx="1.4" ry="1.39772727"></ellipse>
        </g>
    </g>
</svg>