<?xml version="1.0" encoding="UTF-8"?>
<svg width="64px" height="64px" viewBox="0 0 64 64" version="1.1" xmlns="http://www.w3.org/2000/svg" xmlns:xlink="http://www.w3.org/1999/xlink">
    <!-- Generator: Sketch 58 (84663) - https://sketch.com -->
    <title>atoms/icons/64x64/certificate/default</title>
    <desc>Created with Sketch.</desc>
    <g id="atoms/icons/64x64/certificate/default" stroke="none" stroke-width="1" fill="none" fill-rule="evenodd">
        <g id="icon" transform="translate(9.000000, 15.000000)" fill-rule="nonzero">
            <rect id="Rectangle" stroke="#464646" stroke-width="1.5" x="0" y="0" width="47" height="34" rx="4"></rect>
            <circle id="Oval-Copy" fill="#464646" transform="translate(36.000000, 8.000000) scale(-1, 1) translate(-36.000000, -8.000000) " cx="36" cy="8" r="1"></circle>
            <circle id="Oval-Copy-2" fill="#464646" transform="translate(19.000000, 22.000000) scale(-1, 1) translate(-19.000000, -22.000000) " cx="19" cy="22" r="1"></circle>
            <path d="M32,8 L10,8 L32,8 Z" id="Line-Copy-3" stroke="#464646" stroke-width="1.5" stroke-linecap="round" stroke-linejoin="round"></path>
            <path d="M27,22 L22,22 L27,22 Z" id="Line-Copy-6" stroke="#464646" stroke-width="1.5" stroke-linecap="round" stroke-linejoin="round"></path>
            <path d="M27,13 L10,13 L27,13 Z" id="Line-Copy-2" stroke="#464646" stroke-width="1.5" stroke-linecap="round" stroke-linejoin="round"></path>
            <path d="M38,16 L10,16 L38,16 Z" id="Line-Copy-5" stroke="#464646" stroke-width="1.5" stroke-linecap="round" stroke-linejoin="round"></path>
            <path d="M34.2925474,39 L33.4364785,37.2553105 C33.2303334,36.8350697 32.8444105,36.61399 32.452822,36.6920579 L31,36.9821404 L32.5303988,33 C33.1335803,33.7643079 33.9929178,34.1772426 34.8849423,34.0729265 C35.1899107,34.0366662 35.4956418,34.1386822 35.7454783,34.3590854 C35.8278492,34.4318766 35.9133798,34.4964146 36,34.5572994 L34.2925474,39 Z M40.7074526,39 L41.5635215,37.2553105 C41.7696666,36.8350697 42.1555895,36.61399 42.547178,36.6920579 L44,36.9821404 L42.4696012,33 C41.8664197,33.7643079 41.0070822,34.1772426 40.1150577,34.0729265 C39.8100893,34.0366662 39.5043582,34.1386822 39.2545217,34.3590854 C39.1721508,34.4318766 39.0866202,34.4964146 39,34.5572994 L40.7074526,39 Z M38.1948586,21.2216029 C38.7297066,21.6017859 39.3835347,21.7766332 40.0373628,21.7153497 C40.5455093,21.6670595 41.0288981,21.9465697 41.2410776,22.4102375 C41.5141284,23.0070102 41.9931181,23.4860244 42.5897579,23.7589868 C43.0535043,23.9712795 43.3327956,24.4549999 43.2847125,24.9626609 C43.2229205,25.6161132 43.3981682,26.2704863 43.7783317,26.805157 C44.0738894,27.2208415 44.0738894,27.7793503 43.7783317,28.1950348 C43.3981682,28.7299101 43.2229205,29.3842832 43.2847125,30.0375309 C43.3327956,30.5452942 43.0535043,31.0290146 42.5896556,31.2413073 C42.2331244,31.4044914 41.9200726,31.6424638 41.6664598,31.9337397 C41.6560247,31.9445845 41.6457943,31.9555316 41.6361776,31.966888 C41.6295278,31.9748682 41.6232873,31.9831553 41.6166375,31.9912377 C41.6089646,32.0010595 41.6011895,32.0106766 41.5940282,32.0208053 C41.454894,32.1947318 41.3349932,32.3848233 41.2410776,32.590159 C41.0287958,33.0538267 40.5451001,33.3332346 40.0373628,33.2850467 C39.38466,33.2235586 38.7299112,33.3985082 38.1948586,33.7786912 C38.0393558,33.8891857 37.8638012,33.9583471 37.6831315,33.9861754 C37.6807785,33.9864823 37.6784255,33.9866869 37.6759701,33.9870962 C37.5595476,34.0042842 37.4411813,34.0042842 37.3247588,33.9871985 C37.3217919,33.9867892 37.3188251,33.9864823 37.3159606,33.9860731 C37.1355977,33.9581425 36.9602478,33.8890834 36.8049496,33.7786912 C36.3404871,33.4484354 35.7858944,33.2728719 35.2201504,33.2728719 C35.1344193,33.2728719 35.0484835,33.2769642 34.9625477,33.2850467 C34.4541966,33.33303 33.971217,33.0538267 33.7590375,32.590159 C33.664815,32.3843118 33.5446072,32.193811 33.4050639,32.0195775 C33.3989256,32.0108812 33.3921735,32.0026964 33.3857283,31.994307 C33.3779532,31.9848945 33.3706896,31.9751751 33.3629144,31.9658649 C33.3540139,31.9554293 33.3447042,31.9455053 33.3351899,31.9355812 C33.0812701,31.6433846 32.7675022,31.4047983 32.4101525,31.2413073 C31.9464062,31.0291169 31.6672172,30.5453965 31.7153003,30.0376332 C31.7770923,29.3842832 31.6018446,28.7299101 31.2216811,28.1951371 C30.9261234,27.7794526 30.9261234,27.2209438 31.2215788,26.8052593 C31.6018446,26.2704863 31.7770923,25.6161132 31.7153003,24.9627632 C31.6672172,24.4549999 31.9465085,23.9712795 32.4101525,23.7590891 C33.0068947,23.4860244 33.4858844,23.0070102 33.7589352,22.4102375 C33.971217,21.9464674 34.4559358,21.6671618 34.9625477,21.7153497 C35.6165804,21.7770425 36.2703062,21.6017859 36.8050519,21.2216029 C37.2208174,20.9261324 37.7792977,20.9261324 38.1948586,21.2216029 Z M37.5000553,24 C35.5701162,24 34,25.5701162 34,27.4999447 C34,29.4298838 35.5701162,31 37.5000553,31 C39.4298838,31 41,29.4298838 41,27.4999447 C41,25.5701162 39.4298838,24 37.5000553,24 Z" id="Shape" fill="#FF6727"></path>
            <path d="M43.9165791,18.4430444 C44.027807,10.7941937 44.027807,6.91223268 43.9165791,6.79716121 C43.7531995,6.62819926 43.5369508,6.5351963 43.3062917,6.5351963 C41.8822878,6.5351963 40.7172021,5.36359542 40.6531042,3.86746937 C40.6320501,3.38097718 40.2523282,3 39.7886707,3 L7.21942338,3 C6.75567233,3 6.37585686,3.3810757 6.35489636,3.86796197 C6.29379276,5.29758696 5.18223128,6.4680056 3.82429035,6.53233922 C3.36203648,6.55421068 3,6.95410371 3,7.44256631 L3,26.5575322 C3,27.0459948 3.36203648,27.4457893 3.82429035,27.4676608 C5.18223128,27.5320929 6.29379276,28.702413 6.35489636,30.1325306 C6.37595043,30.6190228 6.75576591,31 7.21942338,31 C20.9047647,31 27.8160215,31 27.9531938,31" id="Shape" stroke="#464646" stroke-width="1.5" stroke-linecap="round" stroke-linejoin="round"></path>
        </g>
    </g>
</svg>